<?xml version="1.0" encoding="UTF-8"?>
<svg width="112px" height="26px" viewBox="0 0 112 26" version="1.1" xmlns="http://www.w3.org/2000/svg" xmlns:xlink="http://www.w3.org/1999/xlink">
    <!-- Generator: Sketch 41 (35326) - http://www.bohemiancoding.com/sketch -->
    <title>Group 16</title>
    <desc>Created with Sketch.</desc>
    <defs></defs>
    <g id="System" stroke="none" stroke-width="1" fill="none" fill-rule="evenodd">
        <g id="desktop" transform="translate(-30.000000, -4496.000000)">
            <g id="Group-43" transform="translate(30.000000, 4496.000000)">
                <g id="Group-16" transform="translate(0.000000, 0.000000)">
                    <g id="Group-7">
                        <path d="M4,1 C4,0.44771525 4.43788135,0 5.00292933,0 L9.99707067,0 C10.5509732,0 11,0.443864822 11,1 C11,1.55228475 10.5621186,2 9.99707067,2 L5.00292933,2 C4.44902676,2 4,1.55613518 4,1 Z M18,1 C18,0.44771525 18.4378814,0 19.0029293,0 L23.9970707,0 C24.5509732,0 25,0.443864822 25,1 C25,1.55228475 24.5621186,2 23.9970707,2 L19.0029293,2 C18.4490268,2 18,1.55613518 18,1 Z M1,4 C1,3.44771525 1.44748943,3 1.99850233,3 L13.0014977,3 C13.5529553,3 14,3.44386482 14,4 C14,4.55228475 13.5525106,5 13.0014977,5 L1.99850233,5 C1.44704472,5 1,4.55613518 1,4 Z M15,4 C15,3.44771525 15.4474894,3 15.9985023,3 L27.0014977,3 C27.5529553,3 28,3.44386482 28,4 C28,4.55228475 27.5525106,5 27.0014977,5 L15.9985023,5 C15.4470447,5 15,4.55613518 15,4 Z M0,7 C0,6.44771525 0.450925395,6 0.994771168,6 L18.0052288,6 C18.5546258,6 19,6.44386482 19,7 C19,7.55228475 18.5490746,8 18.0052288,8 L0.994771168,8 C0.445374222,8 0,7.55613518 0,7 Z M20,7 C20,6.44771525 20.4463114,6 20.9975446,6 L28.0024554,6 C28.553384,6 29,6.44386482 29,7 C29,7.55228475 28.5536886,8 28.0024554,8 L20.9975446,8 C20.446616,8 20,7.55613518 20,7 Z M5,10 C5,9.44771525 5.45530558,9 5.99180311,9 L24.0081969,9 C24.5559546,9 25,9.44386482 25,10 C25,10.5522847 24.5446944,11 24.0081969,11 L5.99180311,11 C5.44404538,11 5,10.5561352 5,10 Z M26,10 C26,9.44771525 26.4426603,9 26.9989566,9 L28.0010434,9 C28.5527519,9 29,9.44386482 29,10 C29,10.5522847 28.5573397,11 28.0010434,11 L26.9989566,11 C26.4472481,11 26,10.5561352 26,10 Z M0,13 C0,12.4477153 0.448920205,12 1.00748397,12 L13.992516,12 C14.5489341,12 15,12.4438648 15,13 C15,13.5522847 14.5510798,14 13.992516,14 L1.00748397,14 C0.45106594,14 0,13.5561352 0,13 Z M16,13 C16,12.4477153 16.455761,12 17.0024733,12 L26.9975267,12 C27.5511774,12 28,12.4438648 28,13 C28,13.5522847 27.544239,14 26.9975267,14 L17.0024733,14 C16.4488226,14 16,13.5561352 16,13 Z M0,10 C0,9.44771525 0.443353176,9 1.0093689,9 L2.9906311,9 C3.54809015,9 4,9.44386482 4,10 C4,10.5522847 3.55664682,11 2.9906311,11 L1.0093689,11 C0.451909848,11 0,10.5561352 0,10 Z M17,16 C17,15.4477153 17.4463114,15 17.9975446,15 L25.0024554,15 C25.553384,15 26,15.4438648 26,16 C26,16.5522847 25.5536886,17 25.0024554,17 L17.9975446,17 C17.446616,17 17,16.5561352 17,16 Z M3,16 C3,15.4477153 3.44748943,15 3.99850233,15 L15.0014977,15 C15.5529553,15 16,15.4438648 16,16 C16,16.5522847 15.5525106,17 15.0014977,17 L3.99850233,17 C3.44704472,17 3,16.5561352 3,16 Z M7,19 C7,18.4477153 7.44994876,18 8.00684547,18 L19.9931545,18 C20.5492199,18 21,18.4438648 21,19 C21,19.5522847 20.5500512,20 19.9931545,20 L8.00684547,20 C7.45078007,20 7,19.5561352 7,19 Z M10,22 C10,21.4477153 10.4463114,21 10.9975446,21 L18.0024554,21 C18.553384,21 19,21.4438648 19,22 C19,22.5522847 18.5536886,23 18.0024554,23 L10.9975446,23 C10.446616,23 10,22.5561352 10,22 Z M13,25 C13,24.4477153 13.4426603,24 13.9989566,24 L15.0010434,24 C15.5527519,24 16,24.4438648 16,25 C16,25.5522847 15.5573397,26 15.0010434,26 L13.9989566,26 C13.4472481,26 13,25.5561352 13,25 Z" id="Combined-Shape" fill="#00A3FD"></path>
                        <text id="devman" font-family="ArialRoundedMTBold, Arial Rounded MT Bold" font-size="20" font-weight="normal" fill="#000000">
                            <tspan x="36" y="19">devman</tspan>
                        </text>
                    </g>
                </g>
            </g>
        </g>
    </g>
</svg>